<svg height="512" viewBox="0 0 64 64" width="512" xmlns="http://www.w3.org/2000/svg"><g fill="#bddbff"><path d="m61 11v34a2.006 2.006 0 0 1 -2 2h-6v-4h3a1 1 0 0 0 1-1v-28a1 1 0 0 0 -1-1h-40a1 1 0 0 0 -1 1v3h-4v-6a2.006 2.006 0 0 1 2-2h46a2.006 2.006 0 0 1 2 2z"/><path d="m53 47v6a2.006 2.006 0 0 1 -2 2h-46a2.006 2.006 0 0 1 -2-2v-34a2.006 2.006 0 0 1 2-2h46a2.006 2.006 0 0 1 2 2zm-4 3v-28a1 1 0 0 0 -1-1h-40a1 1 0 0 0 -1 1v28a1 1 0 0 0 1 1h40a1 1 0 0 0 1-1z"/><path d="m49 45v5a1 1 0 0 1 -1 1h-17l-7-7 6.5-6.5 3.5 3.5 2-2 2 2 3.5-3.5z"/><circle cx="41" cy="27" r="2"/><path d="m24 28a2 2 0 0 1 0 4h-5a2 2 0 0 1 0-4h1a2 2 0 0 1 4 0z"/><path d="m24 44-3-3-3 3-2-2-2 2-3-3-4 4v5a1 1 0 0 0 1 1h23z"/></g><path d="m48 20h-40a2 2 0 0 0 -2 2v28a2 2 0 0 0 2 2h40a2 2 0 0 0 2-2v-28a2 2 0 0 0 -2-2zm0 2v20.587l-11.293-11.294a1 1 0 0 0 -1.414 0l-11.293 11.293-7.293-7.293a1 1 0 0 0 -1.414 0l-7.293 7.293v-20.586zm-7.914 15.5-2.086 2.086-1.293-1.293a1 1 0 0 0 -1.414 0l-1.293 1.293-2.086-2.086 4.086-4.086zm-20.5 3.5-1.586 1.586-1.293-1.293a1 1 0 0 0 -1.414 0l-1.293 1.293-1.586-1.586 3.586-3.586zm-11.586 4.414 3-3 2.293 2.293a1 1 0 0 0 1.414 0l1.293-1.293 1.293 1.293a1 1 0 0 0 1.414 0l2.293-2.293 7.586 7.586h-20.586zm23.414 4.586-6-6 5.086-5.086 2.793 2.793a1 1 0 0 0 1.414 0l1.293-1.293 1.293 1.293a1 1 0 0 0 1.414 0l2.793-2.793 6.5 6.5v4.586z" fill="#3d9ae2"/><path d="m59 8h-46a3 3 0 0 0 -3 3v5h-5a3 3 0 0 0 -3 3v34a3 3 0 0 0 3 3h46a3 3 0 0 0 3-3v-5h5a3 3 0 0 0 3-3v-34a3 3 0 0 0 -3-3zm-7 45a1 1 0 0 1 -1 1h-46a1 1 0 0 1 -1-1v-34a1 1 0 0 1 1-1h46a1 1 0 0 1 1 1zm-1-37h-35v-2h40v28h-2v-23a3 3 0 0 0 -3-3zm9 29a1 1 0 0 1 -1 1h-5v-2h2a2 2 0 0 0 2-2v-28a2 2 0 0 0 -2-2h-40a2 2 0 0 0 -2 2v2h-2v-5a1 1 0 0 1 1-1h46a1 1 0 0 1 1 1z" fill="#3d9ae2"/><path d="m19 33h5a3 3 0 0 0 .871-5.871 3 3 0 0 0 -5.7-.129h-.171a3 3 0 0 0 0 6zm0-4h1a1 1 0 0 0 1-1 1 1 0 0 1 2 0 1 1 0 0 0 1 1 1 1 0 0 1 0 2h-5a1 1 0 0 1 0-2z" fill="#3d9ae2"/><path d="m41 30a3 3 0 1 0 -3-3 3 3 0 0 0 3 3zm0-4a1 1 0 1 1 -1 1 1 1 0 0 1 1-1z" fill="#3d9ae2"/></svg>